<svg xmlns="http://www.w3.org/2000/svg" viewBox="0 0 200 200" width="400" height="400">
  <defs>
    <linearGradient id="g1" x1="0" x2="1">
      <stop offset="0%" stop-color="#34D399" />
      <stop offset="100%" stop-color="#10B981" />
    </linearGradient>
    <linearGradient id="g2" x1="0" x2="1">
      <stop offset="0%" stop-color="#34D399" stop-opacity="0.9" />
      <stop offset="100%" stop-color="#059669" stop-opacity="0.9" />
    </linearGradient>
  </defs>
  <rect width="100%" height="100%" rx="20" fill="#0f172a" />
  <!-- Leaf -->
  <path d="M50 130 C40 80, 90 40, 120 70 C150 100, 120 150, 80 150 C65 150, 55 140, 50 130 Z" fill="url(#g1)" />
  <!-- Circuit brain (stylized) -->
  <g transform="translate(110,60) scale(0.7)">
    <path d="M2 30 C22 10, 58 10, 78 30 C98 50, 98 86, 78 106 C58 126, 22 126, 2 106 C-18 86, -18 50, 2 30 Z" fill="none" stroke="#a7f3d0" stroke-width="3" />
    <circle cx="30" cy="30" r="4" fill="#a7f3d0" />
    <circle cx="54" cy="30" r="4" fill="#a7f3d0" />
    <circle cx="30" cy="54" r="4" fill="#a7f3d0" />
    <circle cx="54" cy="54" r="4" fill="#a7f3d0" />
    <path d="M30 30 L38 30 L46 38" stroke="#a7f3d0" stroke-width="2" fill="none" stroke-linecap="round" stroke-linejoin="round" />
    <path d="M54 30 L46 30 L38 38" stroke="#a7f3d0" stroke-width="2" fill="none" stroke-linecap="round" stroke-linejoin="round" />
  </g>
</svg>
